<svg aria-hidden="true" style="position: absolute; width: 0; height: 0; overflow: hidden;" version="1.1" xmlns="http://www.w3.org/2000/svg" xmlns:xlink="http://www.w3.org/1999/xlink">
<defs>
<symbol id="close" viewBox="0 0 24 24">
<title>close</title>
<path d="M18.984 6.422l-5.578 5.578 5.578 5.578-1.406 1.406-5.578-5.578-5.578 5.578-1.406-1.406 5.578-5.578-5.578-5.578 1.406-1.406 5.578 5.578 5.578-5.578z"></path>
</symbol>
<symbol id="link" viewBox="0 0 24 24">
<title>link</title>
<path d="M21.1 2.8c-2.3-2.3-6-2.3-8.3 0l-1.8 1.7c-0.4 0.4-0.4 1 0 1.4s1 0.4 1.4 0l1.7-1.7c1.6-1.5 4-1.5 5.6 0s1.6 4.1 0.1 5.6l-3 3c-0.1 0.1-0.3 0.3-0.4 0.4-1.8 1.3-4.3 1-5.6-0.8-0.3-0.4-1-0.5-1.4-0.2s-0.5 1-0.2 1.4c1.2 1.6 3 2.4 4.8 2.4 1.2 0 2.5-0.4 3.6-1.2 0.2-0.2 0.4-0.4 0.7-0.6l3-3c2.3-2.3 2.2-6.2-0.2-8.4z"></path>
<path d="M11.5 18.1l-1.7 1.7c-1.6 1.5-4 1.5-5.6 0s-1.6-4.1-0.1-5.6l3-3c0.1-0.1 0.3-0.3 0.4-0.4 0.9-0.6 1.9-0.9 3-0.8 1.1 0.2 2 0.7 2.6 1.6 0.3 0.4 1 0.5 1.4 0.2s0.5-1 0.2-1.4c-1-1.3-2.4-2.1-3.9-2.3-1.5-0.3-3.1 0.1-4.4 1.1-0.2 0.2-0.4 0.4-0.6 0.6l-3 3c-2.3 2.4-2.2 6.2 0.1 8.5 1.2 1.1 2.7 1.7 4.2 1.7s3-0.6 4.2-1.7l1.7-1.7c0.4-0.4 0.4-1 0-1.4s-1.1-0.5-1.5-0.1z"></path>
</symbol>
<symbol id="check-circle" viewBox="0 0 24 24">
<title>check-circle</title>
<path d="M22 10.1c-0.6 0-1 0.4-1 1v0.9c0 5-4 9-9 9 0 0 0 0 0 0-5 0-9-4-9-9s4-9 9-9c0 0 0 0 0 0 1.3 0 2.5 0.3 3.7 0.8 0.5 0.2 1.1 0 1.3-0.5s0-1.1-0.5-1.3c-1.4-0.6-2.9-1-4.5-1 0 0 0 0 0 0-6.1 0-11 4.9-11 11s4.9 11 11 11c0 0 0 0 0 0 6.1 0 11-4.9 11-11v-0.9c0-0.6-0.4-1-1-1z"></path>
<path d="M9.7 10.3c-0.4-0.4-1-0.4-1.4 0s-0.4 1 0 1.4l3 3c0.2 0.2 0.4 0.3 0.7 0.3s0.5-0.1 0.7-0.3l10-10c0.4-0.4 0.4-1 0-1.4s-1-0.4-1.4 0l-9.3 9.3-2.3-2.3z"></path>
</symbol>
<symbol id="lightbulb" viewBox="0 0 22 32">
<title>lightbulb</title>
<path d="M11 0c-5.29 0-11 4.206-11 11 0 3.353 1.334 6.174 3.896 8.312 0.027 0.034 0.058 0.063 0.092 0.088 1.901 2.062 1.997 2.454 2.010 3.361 0.006 0.359 0.003 0.465 0 0.523l-0.004 0.209c-0.015 0.452-0.038 1.209 0.899 1.495l8.094 1.781c0.036 0.008 0.072 0.012 0.107 0.012 0.23 0 0.437-0.159 0.488-0.393 0.060-0.27-0.111-0.537-0.381-0.596l-8.055-1.771c-0.155-0.047-0.168-0.051-0.154-0.498l0.003-0.191c0 0 0.010-0.078 0.002-0.586-0.019-1.269-0.295-1.882-2.309-4.059-0.039-0.048-0.086-0.088-0.138-0.118-2.356-2.003-3.55-4.549-3.55-7.569 0-6.177 5.19-10 10-10 4.916 0 10 3.741 10 10 0 3.978-1.928 6.171-3.518 7.551-0.055 0.026-0.104 0.063-0.147 0.109-2.037 2.204-2.313 2.817-2.332 4.086 0 0.030-0.001 0.065 0 0.103l-0.001 0.035c-0.003 0.076-0.014 0.118-0.013 0.134-0.034-0.005-0.117-0.018-0.117-0.018l-4.195-0.987c-0.272-0.062-0.538 0.104-0.601 0.372s0.103 0.538 0.372 0.602l4.144 0.972c0.055 0.020 0.553 0.182 0.973-0.113 0.183-0.129 0.396-0.382 0.434-0.866l0.003-0.047c0.001-0.032 0.002-0.065 0.002-0.099 0-0.009 0-0.018-0.001-0.026l0.001-0.046c0.013-0.902 0.107-1.294 2.005-3.356 0.009-0.007 0.019-0.014 0.027-0.022 2.667-2.241 3.964-4.984 3.964-8.384 0-6.885-5.593-11-11-11zM15 29.5c0.229 0 0.435-0.157 0.487-0.39 0.062-0.269-0.107-0.537-0.377-0.598l-8-1.814c-0.271-0.060-0.537 0.108-0.598 0.377-0.062 0.269 0.107 0.537 0.377 0.598l8 1.814c0.038 0.009 0.075 0.013 0.111 0.013zM7.609 29.554c-0.271-0.060-0.536 0.109-0.598 0.378-0.060 0.27 0.109 0.537 0.379 0.597l6.5 1.458c0.038 0.009 0.074 0.013 0.11 0.013 0.229 0 0.436-0.158 0.488-0.391 0.060-0.27-0.109-0.537-0.379-0.597l-6.5-1.458z"></path>
</symbol>
<symbol id="heart" viewBox="0 0 32 32">
<title>heart</title>
<path d="M16.042 8.345c0 0-2-4.262-6.5-4.262-4.917 0-7.5 4.167-7.5 8.333 0 6.917 14 15.5 14 15.5s13.916-8.5 13.916-15.5c0-4.25-2.666-8.333-7.416-8.333s-6.5 4.262-6.5 4.262z"></path>
</symbol>
<symbol id="envelope" viewBox="0 0 32 32">
<title>envelope</title>
<path d="M16.015 18.861l-4.072-3.343-8.862 10.463h25.876l-8.863-10.567-4.079 3.447zM29.926 6.019h-27.815l13.908 11.698 13.907-11.698zM20.705 14.887l9.291 11.084v-18.952l-9.291 7.868zM2.004 7.019v18.952l9.291-11.084-9.291-7.868z"></path>
</symbol>
<symbol id="twitter" viewBox="0 0 26 28">
<title>twitter</title>
<path d="M25.312 6.375c-0.688 1-1.547 1.891-2.531 2.609 0.016 0.219 0.016 0.438 0.016 0.656 0 6.672-5.078 14.359-14.359 14.359-2.859 0-5.516-0.828-7.75-2.266 0.406 0.047 0.797 0.063 1.219 0.063 2.359 0 4.531-0.797 6.266-2.156-2.219-0.047-4.078-1.5-4.719-3.5 0.313 0.047 0.625 0.078 0.953 0.078 0.453 0 0.906-0.063 1.328-0.172-2.312-0.469-4.047-2.5-4.047-4.953v-0.063c0.672 0.375 1.453 0.609 2.281 0.641-1.359-0.906-2.25-2.453-2.25-4.203 0-0.938 0.25-1.797 0.688-2.547 2.484 3.062 6.219 5.063 10.406 5.281-0.078-0.375-0.125-0.766-0.125-1.156 0-2.781 2.25-5.047 5.047-5.047 1.453 0 2.766 0.609 3.687 1.594 1.141-0.219 2.234-0.641 3.203-1.219-0.375 1.172-1.172 2.156-2.219 2.781 1.016-0.109 2-0.391 2.906-0.781z"></path>
</symbol>
<symbol id="play" viewBox="0 0 32 32">
<title>play</title>
<path d="M6 4l20 12-20 12z"></path>
</symbol>
<symbol id="github" viewBox="0 0 32 32">
<title>github</title>
<path d="M16 0.395c-8.836 0-16 7.163-16 16 0 7.069 4.585 13.067 10.942 15.182 0.8 0.148 1.094-0.347 1.094-0.77 0-0.381-0.015-1.642-0.022-2.979-4.452 0.968-5.391-1.888-5.391-1.888-0.728-1.849-1.776-2.341-1.776-2.341-1.452-0.993 0.11-0.973 0.11-0.973 1.606 0.113 2.452 1.649 2.452 1.649 1.427 2.446 3.743 1.739 4.656 1.33 0.143-1.034 0.558-1.74 1.016-2.14-3.554-0.404-7.29-1.777-7.29-7.907 0-1.747 0.625-3.174 1.649-4.295-0.166-0.403-0.714-2.030 0.155-4.234 0 0 1.344-0.43 4.401 1.64 1.276-0.355 2.645-0.532 4.005-0.539 1.359 0.006 2.729 0.184 4.008 0.539 3.054-2.070 4.395-1.64 4.395-1.64 0.871 2.204 0.323 3.831 0.157 4.234 1.026 1.12 1.647 2.548 1.647 4.295 0 6.145-3.743 7.498-7.306 7.895 0.574 0.497 1.085 1.47 1.085 2.963 0 2.141-0.019 3.864-0.019 4.391 0 0.426 0.288 0.925 1.099 0.768 6.354-2.118 10.933-8.113 10.933-15.18 0-8.837-7.164-16-16-16z"></path>
</symbol>
<symbol id="linkedin" viewBox="0 0 32 32">
<title>linkedin</title>
<path d="M29 0h-26c-1.65 0-3 1.35-3 3v26c0 1.65 1.35 3 3 3h26c1.65 0 3-1.35 3-3v-26c0-1.65-1.35-3-3-3zM12 26h-4v-14h4v14zM10 10c-1.106 0-2-0.894-2-2s0.894-2 2-2c1.106 0 2 0.894 2 2s-0.894 2-2 2zM26 26h-4v-8c0-1.106-0.894-2-2-2s-2 0.894-2 2v8h-4v-14h4v2.481c0.825-1.131 2.087-2.481 3.5-2.481 2.488 0 4.5 2.238 4.5 5v9z"></path>
</symbol>
<symbol id="laptop" viewBox="0 0 512 512"><title>laptop</title><path style="fill:#38454F;" d="M185.379,384v17.655h141.241V384H476.69V101.517c0-9.754-7.901-17.655-17.655-17.655H52.966 c-9.754,0-17.655,7.901-17.655,17.655V384H185.379z"/><path style="fill:#B0B6BB;" d="M326.621,384v17.655H185.379V384H0v26.483c0,9.754,7.901,17.655,17.655,17.655h476.69 c9.754,0,17.655-7.901,17.655-17.655V384H326.621z"/><polygon style="fill:#546A79;" points="52.966,366.345 459.034,366.345 459.034,101.517 52.966,101.517 "/><g> <path style="fill:#EA6148;" d="M432.552,348.69H300.138c-4.882,0-8.828-3.955-8.828-8.828s3.946-8.828,8.828-8.828h132.414 c4.882,0,8.828,3.955,8.828,8.828S437.433,348.69,432.552,348.69"/> <path style="fill:#EA6148;" d="M167.724,295.724H79.448c-4.882,0-8.828-3.955-8.828-8.828s3.946-8.828,8.828-8.828h88.276 c4.882,0,8.828,3.955,8.828,8.828S172.606,295.724,167.724,295.724"/> <path style="fill:#EA6148;" d="M388.414,295.724H256c-4.882,0-8.828-3.955-8.828-8.828s3.946-8.828,8.828-8.828h132.414 c4.882,0,8.828,3.955,8.828,8.828S393.295,295.724,388.414,295.724"/> <path style="fill:#EA6148;" d="M211.862,295.724c-2.295,0-4.599-0.971-6.268-2.56c-1.598-1.677-2.56-3.972-2.56-6.268 c0-1.148,0.265-2.295,0.706-3.354c0.441-1.148,1.059-2.119,1.854-2.913c3.266-3.266,9.181-3.266,12.535,0 c1.589,1.677,2.56,3.972,2.56,6.268s-0.971,4.59-2.56,6.268c-0.441,0.353-0.892,0.794-1.412,1.059 c-0.441,0.353-0.98,0.618-1.501,0.794c-0.538,0.265-1.059,0.441-1.686,0.53C213.01,295.636,212.392,295.724,211.862,295.724"/> <path style="fill:#EA6148;" d="M256,348.69H123.586c-4.882,0-8.828-3.955-8.828-8.828s3.946-8.828,8.828-8.828H256 c4.882,0,8.828,3.955,8.828,8.828S260.882,348.69,256,348.69"/> <path style="fill:#EA6148;" d="M79.448,348.69c-1.148,0-2.295-0.265-3.354-0.706c-1.059-0.441-2.03-1.059-2.913-1.854 c-1.598-1.677-2.56-3.884-2.56-6.268c0-1.148,0.265-2.295,0.706-3.354c0.441-1.148,1.059-2.03,1.854-2.913 c2.119-2.03,5.12-2.913,7.936-2.383c0.627,0.088,1.148,0.265,1.686,0.53c0.521,0.177,1.059,0.441,1.501,0.794 c0.521,0.353,0.971,0.706,1.412,1.059c0.794,0.883,1.412,1.766,1.854,2.913c0.441,1.059,0.706,2.207,0.706,3.354 c0,2.383-0.971,4.59-2.56,6.268c-0.441,0.353-0.892,0.706-1.412,1.059c-0.441,0.353-0.98,0.618-1.501,0.794 c-0.538,0.265-1.059,0.441-1.686,0.53C80.596,348.601,79.978,348.69,79.448,348.69"/> <path style="fill:#EA6148;" d="M432.552,295.724c-0.538,0-1.148-0.088-1.677-0.177c-0.618-0.088-1.148-0.265-1.677-0.53 c-0.53-0.177-1.059-0.441-1.598-0.794c-0.433-0.353-0.874-0.706-1.315-1.059c-1.598-1.677-2.56-3.972-2.56-6.268 s0.962-4.59,2.56-6.268l1.315-1.059c0.539-0.353,1.068-0.618,1.598-0.794c0.53-0.265,1.059-0.441,1.677-0.53 c2.825-0.618,5.906,0.353,7.945,2.383c0.353,0.441,0.706,0.883,1.059,1.412c0.353,0.441,0.609,0.971,0.794,1.501 c0.265,0.53,0.441,1.059,0.521,1.677c0.097,0.53,0.185,1.148,0.185,1.677c0,0.53-0.088,1.148-0.185,1.766 c-0.079,0.53-0.256,1.059-0.521,1.589c-0.185,0.53-0.441,1.059-0.794,1.589c-0.353,0.441-0.706,0.883-1.059,1.324 c-0.441,0.353-0.892,0.706-1.324,1.059c-0.53,0.353-1.068,0.618-1.589,0.794c-0.538,0.265-1.059,0.441-1.686,0.53 C433.699,295.636,433.081,295.724,432.552,295.724"/> <path style="fill:#EA6148;" d="M432.552,189.793H300.138c-4.882,0-8.828-3.955-8.828-8.828s3.946-8.828,8.828-8.828h132.414 c4.882,0,8.828,3.955,8.828,8.828S437.433,189.793,432.552,189.793"/> <path style="fill:#EA6148;" d="M432.552,242.759h-88.276c-4.882,0-8.828-3.955-8.828-8.828c0-4.873,3.946-8.828,8.828-8.828 h88.276c4.882,0,8.828,3.955,8.828,8.828C441.379,238.804,437.433,242.759,432.552,242.759"/> <path style="fill:#EA6148;" d="M273.655,242.759H256c-4.882,0-8.828-3.955-8.828-8.828c0-4.873,3.946-8.828,8.828-8.828h17.655 c4.882,0,8.828,3.955,8.828,8.828C282.483,238.804,278.537,242.759,273.655,242.759"/> <path style="fill:#EA6148;" d="M388.414,136.828H256c-4.882,0-8.828-3.955-8.828-8.828c0-4.873,3.946-8.828,8.828-8.828h132.414 c4.882,0,8.828,3.955,8.828,8.828C397.241,132.873,393.295,136.828,388.414,136.828"/> <path style="fill:#EA6148;" d="M432.552,136.828c-0.538,0-1.148-0.088-1.677-0.177c-0.618-0.088-1.148-0.265-1.677-0.53 c-0.53-0.177-1.059-0.441-1.598-0.794c-0.433-0.353-0.874-0.706-1.315-1.059c-1.598-1.677-2.56-3.972-2.56-6.268 c0-2.295,0.962-4.59,2.56-6.268l1.315-1.059c0.539-0.353,1.068-0.618,1.598-0.794c0.53-0.265,1.059-0.441,1.677-0.53 c2.825-0.618,5.906,0.353,7.945,2.383c0.353,0.441,0.706,0.883,1.059,1.412c0.353,0.441,0.609,0.971,0.794,1.501 c0.265,0.53,0.441,1.059,0.521,1.677c0.097,0.53,0.185,1.148,0.185,1.677c0,0.53-0.088,1.148-0.185,1.766 c-0.079,0.53-0.256,1.059-0.521,1.589c-0.185,0.53-0.441,1.059-0.794,1.589c-0.353,0.441-0.706,0.883-1.059,1.324 c-0.441,0.353-0.892,0.706-1.324,1.059c-0.53,0.353-1.068,0.618-1.589,0.794c-0.538,0.265-1.059,0.441-1.686,0.53 C433.699,136.739,433.081,136.828,432.552,136.828"/> <path style="fill:#EA6148;" d="M264.828,189.793c-2.392,0-4.599-0.971-6.268-2.56c-1.598-1.677-2.56-3.884-2.56-6.268 c0-2.295,0.962-4.59,2.56-6.268c2.03-2.03,5.12-3.001,7.936-2.383c0.627,0.088,1.148,0.265,1.686,0.53 c0.521,0.177,1.059,0.441,1.501,0.794c0.521,0.265,0.971,0.706,1.324,1.059c1.677,1.677,2.648,3.972,2.648,6.268 c0,2.383-0.971,4.59-2.648,6.268C269.418,188.822,267.211,189.793,264.828,189.793"/> <path style="fill:#EA6148;" d="M308.966,242.759c-0.618,0-1.148-0.088-1.766-0.177c-0.53-0.088-1.059-0.265-1.589-0.53 c-0.53-0.177-1.059-0.441-1.598-0.794c-0.433-0.353-0.874-0.706-1.315-1.059c-1.598-1.677-2.56-3.884-2.56-6.268 c0-2.295,0.962-4.59,2.56-6.268c3.266-3.266,9.269-3.266,12.535,0c1.589,1.677,2.56,3.972,2.56,6.268 c0,0.618-0.088,1.148-0.185,1.766c-0.079,0.53-0.256,1.059-0.521,1.589c-0.185,0.53-0.441,1.059-0.794,1.589 c-0.353,0.441-0.706,0.883-1.059,1.324C313.556,241.788,311.261,242.759,308.966,242.759"/> </g><polygon style="fill:#ECBA16;" points="79.448,242.759 203.034,242.759 203.034,119.172 79.448,119.172 "/></symbol><symbol id="pantone" viewBox="0 0 512 512"><title>pantone</title><path d="m512 88.277344v264.824218c0 19.503907-15.808594 35.3125-35.308594 35.3125h-441.382812c-19.5 0-35.308594-15.808593-35.308594-35.3125v-264.824218zm0 0" fill="#b0d3f0"/><path d="m222.457031 423.722656 42.371094 17.65625 33.984375-17.65625 4.148438-2.382812 45.90625-26.480469 45.8125-26.484375 30.632812-17.65625-44.136719-76.445312-30.632812 17.65625-45.816407 26.480468-32.128906 18.449219-.089844.089844v.089843l-42.992187 24.890626zm0 0" fill="#ff5364"/><path d="m348.867188 394.859375-45.90625 26.480469-39.546876-68.5v-.089844l1.414063-2.472656 7.679687-13.238282v-.089843l.089844-.089844 32.128906-18.449219zm0 0" fill="#df4d60"/><path d="m425.3125 350.71875-30.632812 17.65625-44.136719-76.445312 30.632812-17.65625c8.4375-4.835938 19.199219-1.957032 24.097657 6.445312l26.484374 45.902344c4.867188 8.433594 1.980469 19.21875-6.445312 24.097656zm0 0" fill="#fb7b76"/><path d="m302.960938 421.339844-4.148438 2.382812h-76.355469l10.328125-17.917968 5.558594-9.621094 25.070312-43.34375zm0 0" fill="#802d40"/><path d="m512 35.308594v70.621094h-512v-70.621094c0-19.5 15.808594-35.308594 35.308594-35.308594h441.382812c19.5 0 35.308594 15.808594 35.308594 35.308594zm0 0" fill="#894b9d"/><path d="m70.621094 52.964844c0 9.75-7.90625 17.65625-17.65625 17.65625s-17.65625-7.90625-17.65625-17.65625 7.90625-17.65625 17.65625-17.65625 17.65625 7.90625 17.65625 17.65625zm0 0" fill="#e64c3c"/><path d="m141.242188 52.964844c0 9.75-7.90625 17.65625-17.65625 17.65625s-17.65625-7.90625-17.65625-17.65625 7.90625-17.65625 17.65625-17.65625 17.65625 7.90625 17.65625 17.65625zm0 0" fill="#f0c419"/><path d="m211.863281 52.964844c0 9.75-7.90625 17.65625-17.65625 17.65625s-17.65625-7.90625-17.65625-17.65625 7.90625-17.65625 17.65625-17.65625 17.65625 7.90625 17.65625 17.65625zm0 0" fill="#14a085"/><path d="m370.757812 61.792969h-88.273437c-4.878906 0-8.828125-3.953125-8.828125-8.828125s3.949219-8.828125 8.828125-8.828125h88.273437c4.875 0 8.828126 3.953125 8.828126 8.828125s-3.953126 8.828125-8.828126 8.828125zm0 0" fill="#955ba5"/><path d="m467.863281 61.792969h-61.792969c-4.875 0-8.828124-3.953125-8.828124-8.828125s3.953124-8.828125 8.828124-8.828125h61.792969c4.875 0 8.828125 3.953125 8.828125 8.828125s-3.953125 8.828125-8.828125 8.828125zm0 0" fill="#955ba5"/><path d="m97.101562 194.207031h88.277344v247.171875h-88.277344zm0 0" fill="#d25627"/><path d="m97.101562 264.828125h88.277344v52.964844h-88.277344zm0 0" fill="#e57e25"/><path d="m97.101562 211.863281h88.277344v52.964844h-88.277344zm0 0" fill="#f29c1f"/><path d="m185.378906 176.550781v35.3125h-88.277344v-35.3125c.03125-9.738281 7.917969-17.625 17.65625-17.652343h52.964844c9.738282.027343 17.628906 7.914062 17.65625 17.652343zm0 0" fill="#f0c419"/><path d="m335.449219 227.929688-17.65625 30.628906-76.445313-44.136719 17.652344-30.632813c4.902344-8.402343 15.660156-11.277343 24.101562-6.441406l45.902344 26.480469c8.402344 4.902344 11.28125 15.660156 6.445313 24.101563zm0 0" fill="#7ed09e"/><path d="m214.875 260.210938 26.484375-45.816407 76.429687 44.175781-26.484374 45.820313zm0 0" fill="#71c285"/><path d="m214.863281 260.238281-26.484375 45.902344-3 5.207031v112.375h37.078125l10.328125-17.917968 5.558594-9.621094 25.070312-43.34375v-.089844l1.414063-2.472656 7.679687-13.238282v-.089843l.089844-.089844 18.710938-32.484375zm0 0" fill="#24ae5f"/><path d="m291.308594 304.375-18.710938 32.484375-.089844.089844v.089843l-7.679687 13.238282-76.449219-44.136719 26.484375-45.902344zm0 0" fill="#4fba6f"/><path d="m238.34375 396.183594-5.558594 9.621094-10.328125 17.917968h-37.078125v-58.085937l18.804688 10.859375 17.476562 10.0625zm0 0" fill="#1b8347"/><path d="m123.585938 423.722656h282.484374v88.277344h-282.484374zm0 0" fill="#285680"/><path d="m185.378906 370.757812v52.964844h-70.621094c-9.738281.03125-17.625 7.917969-17.65625 17.65625v-70.621094zm0 0" fill="#c03a2b"/><path d="m238.34375 423.722656v88.277344h-123.585938c-9.738281-.027344-17.625-7.917969-17.65625-17.65625v-52.964844c.03125-9.738281 7.917969-17.625 17.65625-17.65625zm0 0" fill="#35495e"/><path d="m291.308594 423.722656h52.96875v88.277344h-52.96875zm0 0" fill="#2980ba"/><path d="m344.277344 423.722656h52.964844v88.277344h-52.964844zm0 0" fill="#3b97d3"/><path d="m450.207031 441.378906v52.964844c-.027343 9.738281-7.917969 17.628906-17.65625 17.65625h-35.308593v-88.277344h35.308593c9.738281.03125 17.628907 7.917969 17.65625 17.65625zm0 0" fill="#67b9cc"/><path d="m150.070312 459.035156c0-4.875-3.953124-8.828125-8.828124-8.828125s-8.828126 3.953125-8.828126 8.828125c-4.875 0-8.828124 3.953125-8.828124 8.828125s3.953124 8.828125 8.828124 8.828125c0 4.875 3.953126 8.824219 8.828126 8.824219s8.828124-3.949219 8.828124-8.824219c4.875 0 8.828126-3.953125 8.828126-8.828125s-3.953126-8.828125-8.828126-8.828125zm0 0" fill="#e6e7e8"/></symbol><symbol id="hearts" viewBox="0 0 57.947 57.947"><title>hearts</title><path style="fill:#E64C3C;" d="M28.947,56.486c15.685-11.277,23.532-21.592,27.222-29.46c4.311-9.193,0.561-20.589-8.845-24.413 C36.268-1.88,28.947,8.486,28.947,8.486S21.678-1.907,10.623,2.588C1.217,6.412-2.533,17.808,1.778,27.001 C5.468,34.868,13.262,45.21,28.947,56.486z"/></symbol><symbol id="browser" viewBox="0 0 512.883 512.883"><title>browser</title><path style="fill:#546A79;" d="M512,106.372H0V17.214C0,7.503,7.062,0.441,16.772,0.441H496.11c8.828,0,16.772,7.062,16.772,16.772 v89.159H512z"/><path style="fill:#ED7161;" d="M79.448,53.407c0,15.007-11.476,26.483-26.483,26.483S26.483,68.414,26.483,53.407 s11.476-26.483,26.483-26.483S79.448,38.4,79.448,53.407"/><path style="fill:#ECBA16;" d="M158.897,53.407c0,15.007-11.476,26.483-26.483,26.483c-15.007,0-26.483-11.476-26.483-26.483 s11.476-26.483,26.483-26.483C147.421,26.924,158.897,38.4,158.897,53.407"/><path style="fill:#42B05C;" d="M238.345,53.407c0,15.007-11.476,26.483-26.483,26.483c-15.007,0-26.483-11.476-26.483-26.483 s11.476-26.483,26.483-26.483C226.869,26.924,238.345,38.4,238.345,53.407"/><path style="fill:#E8EDEE;" d="M0,106.372v386.648c0,10.593,8.828,19.421,19.421,19.421h104.166h264.828h104.166 c10.593,0,19.421-8.828,19.421-19.421V106.372H0z"/><path style="fill:#25AE88;" d="M291.31,380.028c0,19.421-15.89,35.31-35.31,35.31s-35.31-15.89-35.31-35.31 c0-19.421,15.89-35.31,35.31-35.31S291.31,360.607,291.31,380.028"/><path style="fill:#FFFFFF;" d="M256,194.648c-102.4,0-185.379,82.979-185.379,185.379H220.69c0-19.421,15.89-35.31,35.31-35.31 s35.31,15.89,35.31,35.31h150.069C441.379,277.628,358.4,194.648,256,194.648"/><path style="fill:#25AE88;" d="M271.007,373.848c-1.766,0-4.414-0.883-5.297-1.766c-3.531-3.531-4.414-8.828-0.883-12.359 l55.614-64.441c3.531-3.531,8.828-4.414,12.359-0.883c3.531,3.531,4.414,8.828,0.883,12.359L278.069,371.2 C276.303,372.966,273.655,373.848,271.007,373.848"/><g> <path style="fill:#7383BF;" d="M256,256.441c-5.297,0-8.828-3.531-8.828-8.828v-45.021c0-5.297,3.531-8.828,8.828-8.828 c5.297,0,8.828,3.531,8.828,8.828v45.021C264.828,252.91,261.297,256.441,256,256.441"/> <path style="fill:#7383BF;" d="M194.207,265.269c-3.531,0-6.179-1.766-7.945-4.414l-17.655-34.428 c-1.766-4.414-0.883-9.71,3.531-11.476c4.414-1.766,9.71-0.883,11.476,3.531l17.655,34.428c1.766,4.414,0.883,9.71-3.531,11.476 C196.855,265.269,195.972,265.269,194.207,265.269"/> </g><path style="fill:#ED7161;" d="M317.793,265.269c-1.766,0-2.648,0-3.531-0.883c-4.414-1.766-6.179-7.062-3.531-11.476l16.772-33.545 c1.766-4.414,7.062-6.179,11.476-3.531c4.414,1.766,6.179,7.062,3.531,11.476l-16.772,33.545 C323.972,263.503,321.324,265.269,317.793,265.269"/><path style="fill:#7383BF;" d="M141.241,309.407c-1.766,0-3.531-0.883-5.297-1.766l-30.897-21.186 c-4.414-2.648-5.297-7.945-2.648-12.359c2.648-4.414,7.945-5.297,12.359-2.648l30.897,21.186c4.414,2.648,5.297,7.945,2.648,12.359 C146.538,307.641,143.89,309.407,141.241,309.407"/><path style="fill:#ED7161;" d="M370.759,309.407c-2.648,0-5.297-1.766-7.062-3.531c-2.648-4.414-1.766-9.71,2.648-12.359 l30.897-21.186c4.414-2.648,9.71-1.766,12.359,2.648c2.648,4.414,1.766,9.71-2.648,12.359l-30.897,21.186 C374.29,308.524,372.524,309.407,370.759,309.407"/></symbol>
</defs>
</svg>
